<svg xmlns="http://www.w3.org/2000/svg" width="300" height="53" viewBox="0 0 300 53">
  <g id="build-passing" transform="translate(-488 -768)">
    <path id="Rectangle_1" data-name="Rectangle 1" d="M26.5,0H136a0,0,0,0,1,0,0V53a0,0,0,0,1,0,0H26.5A26.5,26.5,0,0,1,0,26.5v0A26.5,26.5,0,0,1,26.5,0Z" transform="translate(488 768)"/>
    <text id="build" transform="translate(518 804)" fill="#fff" font-size="31" font-family="MyFontBold, My Font"><tspan x="0" y="0">build</tspan></text>
    <path id="Rectangle_2" data-name="Rectangle 2" d="M0,0H137.5A26.5,26.5,0,0,1,164,26.5v0A26.5,26.5,0,0,1,137.5,53H0a0,0,0,0,1,0,0V0A0,0,0,0,1,0,0Z" transform="translate(624 768)" fill="#4cff00"/>
    <text id="passing" transform="translate(643 804)" fill="#fff" font-size="31" font-family="MyFontBold, My Font"><tspan x="0" y="0">passing</tspan></text>
  </g>
</svg>
