<svg xmlns="http://www.w3.org/2000/svg" width="299" height="53" viewBox="0 0 299 53">
  <g id="version" transform="translate(-454 -768)">
    <path id="Rectangle_1" data-name="Rectangle 1" d="M26.5,0H170a0,0,0,0,1,0,0V53a0,0,0,0,1,0,0H26.5A26.5,26.5,0,0,1,0,26.5v0A26.5,26.5,0,0,1,26.5,0Z" transform="translate(454 768)"/>
    <text id="version-2" data-name="version" transform="translate(479 804)" fill="#fff" font-size="31" font-family="MyFontBold, My Font"><tspan x="0" y="0">version</tspan></text>
    <path id="Rectangle_2" data-name="Rectangle 2" d="M0,0H102.5A26.5,26.5,0,0,1,129,26.5v0A26.5,26.5,0,0,1,102.5,53H0a0,0,0,0,1,0,0V0A0,0,0,0,1,0,0Z" transform="translate(624 768)" fill="#70f"/>
    <text id="_0.0.1" data-name="0.0.1" transform="translate(643 804)" fill="#fff" font-size="31" font-family="MyFontBold, My Font"><tspan x="0" y="0">0.0.1</tspan></text>
  </g>
</svg>
